<svg xmlns="http://www.w3.org/2000/svg" viewBox="0 0 2240 2410" width="2240" height="2410" role="img"><title>Workflow</title><rect width="2240" height="2410" fill="#ffffff" /><svg width="1500" height="2370" viewBox="0 0 1500 2370" role="img" aria-labelledby="title desc" data-workflow-style="mp-nodal-v1" x="370" y="20"><title id="title">ASPIRE: amplicon analysis workflow</title><desc id="desc">Numbered conceptual modules use the MetaPathways nodal style. Shared read processing and full taxonomy precede control decontamination and final feature filtering. Diversity keeps the full biological cohort; selected groups feed other analyses. Module numbers are not a serial execution schedule.</desc><rect width="1500" height="2370" fill="#FFFFFF" /><style>text{font-family:"Times New Roman",Times,serif;fill:#111111}.wire{fill:none;stroke:#111111;stroke-width:1.5;marker-end:url(#arrow)}</style><defs><marker id="arrow" viewBox="0 0 10 10" refX="10" refY="5" markerWidth="7" markerHeight="7" orient="auto"><path d="M0 0 L10 5 L0 10z" fill="#111111" /></marker></defs><rect x="20" y="20" width="1460" height="80" rx="16" fill="#CCCCCC" stroke="#666666" stroke-width="1.5" /><text x="750" y="54" font-size="29" text-anchor="middle"><tspan x="750" dy="0">ASPIRE • Amplicon analysis with Nextflow</tspan></text><text x="750" y="83" font-size="21" text-anchor="middle"><tspan x="750" dy="0">Mamba environments • Resource controls • Resumable execution • Audited outputs</tspan></text><rect x="20" y="120" width="770" height="130" rx="16" fill="#DAE8FC" stroke="#6C8EBF" stroke-width="1.5" /><text x="42" y="152" font-size="25" text-anchor="start"><tspan x="42" dy="0">Inputs</tspan></text><text x="42" y="181" font-size="21" text-anchor="start"><tspan x="42" dy="0">Paired amplicon reads, sample manifest, metadata and references</tspan><tspan x="42" dy="24.15">Configured biological / TECH / BIO sample classes</tspan><tspan x="42" dy="24.15">Optional: VOC measurements and genome references</tspan></text><rect x="820" y="120" width="660" height="100" rx="16" fill="#CCCCCC" stroke="#666666" stroke-width="1.5" /><text x="880" y="150" font-size="21" text-anchor="middle"><tspan x="880" dy="0">Module</tspan></text><rect x="867" y="170" width="26" height="26" fill="#F5F5F5" stroke="#111111" stroke-width="3" data-node="module" /><text x="1010" y="150" font-size="21" text-anchor="middle"><tspan x="1010" dy="0">Compute</tspan></text><path d="M1010 170 L1023 183 L1010 196 L997 183Z" fill="#F5F5F5" stroke="#666666" stroke-width="3" data-node="compute" /><text x="1140" y="150" font-size="21" text-anchor="middle"><tspan x="1140" dy="0">Data</tspan></text><circle cx="1140" cy="183" r="12" fill="#F5F5F5" stroke="#666666" stroke-width="3" data-node="data" /><text x="1270" y="150" font-size="21" text-anchor="middle"><tspan x="1270" dy="0">Input</tspan></text><circle cx="1270" cy="183" r="12" fill="#DAE8FC" stroke="#6C8EBF" stroke-width="3" data-node="input" /><text x="1400" y="150" font-size="21" text-anchor="middle"><tspan x="1400" dy="0">Output</tspan></text><circle cx="1400" cy="183" r="12" fill="#D5E8D4" stroke="#82B366" stroke-width="3" data-node="output" /><text x="140" y="337" font-size="27" text-anchor="middle"><tspan x="140" dy="0">Primer removal</tspan><tspan x="140" dy="31.049999999999997">&amp; read QC</tspan></text><rect x="277" y="332" width="26" height="26" fill="#F5F5F5" stroke="#111111" stroke-width="3" data-node="module" /><text x="290" y="352" font-size="20" text-anchor="middle"><tspan x="290" dy="0">1</tspan></text><circle cx="430" cy="345" r="12" fill="#DAE8FC" stroke="#6C8EBF" stroke-width="3" data-node="input" /><text x="430" y="279" font-size="21" text-anchor="middle"><tspan x="430" dy="0">Paired reads</tspan><tspan x="430" dy="24.15">and manifest</tspan></text><circle cx="1370" cy="345" r="12" fill="#D5E8D4" stroke="#82B366" stroke-width="3" data-node="output" /><text x="1370" y="279" font-size="21" text-anchor="middle"><tspan x="1370" dy="0">Processed</tspan><tspan x="1370" dy="24.15">reads</tspan></text><path d="M304.5 345 L416.5 345" class="wire" /><path d="M650 332 L663 345 L650 358 L637 345Z" fill="#F5F5F5" stroke="#666666" stroke-width="3" data-node="compute" /><text x="650" y="279" font-size="21" text-anchor="middle"><tspan x="650" dy="0">Primer trimming</tspan><tspan x="650" dy="24.15">(optional)</tspan></text><text x="650" y="382" font-size="19" text-anchor="middle"><tspan x="650" dy="0">Cutadapt</tspan></text><path d="M443.5 345 L635 345" class="wire" /><path d="M920 332 L933 345 L920 358 L907 345Z" fill="#F5F5F5" stroke="#666666" stroke-width="3" data-node="compute" /><text x="920" y="279" font-size="21" text-anchor="middle"><tspan x="920" dy="0">Read QC</tspan></text><text x="920" y="382" font-size="19" text-anchor="middle"><tspan x="920" dy="0">fastp</tspan></text><path d="M665 345 L905 345" class="wire" /><path d="M1160 332 L1173 345 L1160 358 L1147 345Z" fill="#F5F5F5" stroke="#666666" stroke-width="3" data-node="compute" /><text x="1160" y="279" font-size="21" text-anchor="middle"><tspan x="1160" dy="0">Merge / filter</tspan></text><text x="1160" y="382" font-size="19" text-anchor="middle"><tspan x="1160" dy="0">VSEARCH</tspan></text><path d="M935 345 L1145 345" class="wire" /><path d="M1175 345 L1356.5 345" class="wire" /><path d="M290 359.5 L290 505.5" class="wire" /><text x="140" y="512" font-size="27" text-anchor="middle"><tspan x="140" dy="0">ASV</tspan><tspan x="140" dy="31.049999999999997">construction</tspan></text><rect x="277" y="507" width="26" height="26" fill="#F5F5F5" stroke="#111111" stroke-width="3" data-node="module" /><text x="290" y="527" font-size="20" text-anchor="middle"><tspan x="290" dy="0">2</tspan></text><circle cx="430" cy="520" r="12" fill="#DAE8FC" stroke="#6C8EBF" stroke-width="3" data-node="input" /><text x="430" y="454" font-size="21" text-anchor="middle"><tspan x="430" dy="0">Processed</tspan><tspan x="430" dy="24.15">reads</tspan></text><circle cx="1370" cy="520" r="12" fill="#D5E8D4" stroke="#82B366" stroke-width="3" data-node="output" /><text x="1370" y="454" font-size="21" text-anchor="middle"><tspan x="1370" dy="0">Raw ASVs</tspan><tspan x="1370" dy="24.15">and counts</tspan></text><path d="M304.5 520 L416.5 520" class="wire" /><path d="M650 507 L663 520 L650 533 L637 520Z" fill="#F5F5F5" stroke="#666666" stroke-width="3" data-node="compute" /><text x="650" y="454" font-size="21" text-anchor="middle"><tspan x="650" dy="0">Dereplicate</tspan></text><text x="650" y="557" font-size="19" text-anchor="middle"><tspan x="650" dy="0">VSEARCH</tspan></text><path d="M443.5 520 L635 520" class="wire" /><path d="M920 507 L933 520 L920 533 L907 520Z" fill="#F5F5F5" stroke="#666666" stroke-width="3" data-node="compute" /><text x="920" y="454" font-size="21" text-anchor="middle"><tspan x="920" dy="0">Denoise</tspan></text><text x="920" y="557" font-size="19" text-anchor="middle"><tspan x="920" dy="0">VSEARCH</tspan></text><path d="M665 520 L905 520" class="wire" /><path d="M1160 507 L1173 520 L1160 533 L1147 520Z" fill="#F5F5F5" stroke="#666666" stroke-width="3" data-node="compute" /><text x="1160" y="454" font-size="21" text-anchor="middle"><tspan x="1160" dy="0">Chimera check</tspan><tspan x="1160" dy="24.15">and counts</tspan></text><text x="1160" y="557" font-size="19" text-anchor="middle"><tspan x="1160" dy="0">VSEARCH</tspan></text><path d="M935 520 L1145 520" class="wire" /><path d="M1175 520 L1356.5 520" class="wire" /><path d="M290 534.5 L290 680.5" class="wire" /><text x="140" y="687" font-size="27" text-anchor="middle"><tspan x="140" dy="0">Alignment</tspan><tspan x="140" dy="31.049999999999997">&amp; taxonomy</tspan></text><rect x="277" y="682" width="26" height="26" fill="#F5F5F5" stroke="#111111" stroke-width="3" data-node="module" /><text x="290" y="702" font-size="20" text-anchor="middle"><tspan x="290" dy="0">3</tspan></text><circle cx="430" cy="695" r="12" fill="#DAE8FC" stroke="#6C8EBF" stroke-width="3" data-node="input" /><text x="430" y="629" font-size="21" text-anchor="middle"><tspan x="430" dy="0">All inferred ASVs</tspan><tspan x="430" dy="24.15">and references</tspan></text><circle cx="1370" cy="695" r="12" fill="#D5E8D4" stroke="#82B366" stroke-width="3" data-node="output" /><text x="1370" y="629" font-size="21" text-anchor="middle"><tspan x="1370" dy="0">Full ASV</tspan><tspan x="1370" dy="24.15">taxonomy</tspan></text><path d="M304.5 695 L416.5 695" class="wire" /><path d="M730 682 L743 695 L730 708 L717 695Z" fill="#F5F5F5" stroke="#666666" stroke-width="3" data-node="compute" /><text x="730" y="629" font-size="21" text-anchor="middle"><tspan x="730" dy="0">Align sequences</tspan></text><text x="730" y="732" font-size="19" text-anchor="middle"><tspan x="730" dy="0">SINA</tspan></text><path d="M443.5 695 L715 695" class="wire" /><path d="M1070 682 L1083 695 L1070 708 L1057 695Z" fill="#F5F5F5" stroke="#666666" stroke-width="3" data-node="compute" /><text x="1070" y="629" font-size="21" text-anchor="middle"><tspan x="1070" dy="0">Assign taxonomy</tspan></text><text x="1070" y="732" font-size="19" text-anchor="middle"><tspan x="1070" dy="0">QIIME 2 / VSEARCH</tspan></text><path d="M745 695 L1055 695" class="wire" /><path d="M1085 695 L1356.5 695" class="wire" /><path d="M290 709.5 L290 855.5" class="wire" /><text x="140" y="862" font-size="27" text-anchor="middle"><tspan x="140" dy="0">Control</tspan><tspan x="140" dy="31.049999999999997">decontamination</tspan></text><rect x="277" y="857" width="26" height="26" fill="#F5F5F5" stroke="#111111" stroke-width="3" data-node="module" /><text x="290" y="877" font-size="20" text-anchor="middle"><tspan x="290" dy="0">4</tspan></text><circle cx="430" cy="870" r="12" fill="#DAE8FC" stroke="#6C8EBF" stroke-width="3" data-node="input" /><text x="430" y="804" font-size="21" text-anchor="middle"><tspan x="430" dy="0">Raw counts and</tspan><tspan x="430" dy="24.15">sample classes</tspan></text><circle cx="1370" cy="870" r="12" fill="#D5E8D4" stroke="#82B366" stroke-width="3" data-node="output" /><text x="1370" y="804" font-size="21" text-anchor="middle"><tspan x="1370" dy="0">Decontaminated</tspan><tspan x="1370" dy="24.15">biological counts</tspan></text><path d="M304.5 870 L416.5 870" class="wire" /><path d="M650 857 L663 870 L650 883 L637 870Z" fill="#F5F5F5" stroke="#666666" stroke-width="3" data-node="compute" /><text x="650" y="804" font-size="21" text-anchor="middle"><tspan x="650" dy="0">Biological</tspan><tspan x="650" dy="24.15">depth QC</tspan></text><text x="650" y="907" font-size="19" text-anchor="middle"><tspan x="650" dy="0">ASPIRE / pandas</tspan></text><path d="M443.5 870 L635 870" class="wire" /><path d="M920 857 L933 870 L920 883 L907 870Z" fill="#F5F5F5" stroke="#666666" stroke-width="3" data-node="compute" /><text x="920" y="804" font-size="21" text-anchor="middle"><tspan x="920" dy="0">TECH / BIO</tspan><tspan x="920" dy="24.15">prevalence tests</tspan></text><text x="920" y="907" font-size="19" text-anchor="middle"><tspan x="920" dy="0">decontam</tspan></text><path d="M665 870 L905 870" class="wire" /><path d="M1160 857 L1173 870 L1160 883 L1147 870Z" fill="#F5F5F5" stroke="#666666" stroke-width="3" data-node="compute" /><text x="1160" y="804" font-size="21" text-anchor="middle"><tspan x="1160" dy="0">Union of</tspan><tspan x="1160" dy="24.15">flagged ASVs</tspan></text><text x="1160" y="907" font-size="19" text-anchor="middle"><tspan x="1160" dy="0">ASPIRE / pandas</tspan></text><path d="M935 870 L1145 870" class="wire" /><path d="M1175 870 L1356.5 870" class="wire" /><path d="M290 884.5 L290 1030.5" class="wire" /><text x="140" y="1037" font-size="27" text-anchor="middle"><tspan x="140" dy="0">Non-target</tspan><tspan x="140" dy="31.049999999999997">screening</tspan></text><rect x="277" y="1032" width="26" height="26" fill="#F5F5F5" stroke="#111111" stroke-width="3" data-node="module" /><text x="290" y="1052" font-size="20" text-anchor="middle"><tspan x="290" dy="0">5</tspan></text><circle cx="430" cy="1045" r="12" fill="#DAE8FC" stroke="#6C8EBF" stroke-width="3" data-node="input" /><text x="430" y="979" font-size="21" text-anchor="middle"><tspan x="430" dy="0">ASVs and</tspan><tspan x="430" dy="24.15">reference sequences</tspan></text><circle cx="1370" cy="1045" r="12" fill="#D5E8D4" stroke="#82B366" stroke-width="3" data-node="output" /><text x="1370" y="979" font-size="21" text-anchor="middle"><tspan x="1370" dy="0">Non-target</tspan><tspan x="1370" dy="24.15">evidence</tspan></text><path d="M304.5 1045 L416.5 1045" class="wire" /><path d="M730 1032 L743 1045 L730 1058 L717 1045Z" fill="#F5F5F5" stroke="#666666" stroke-width="3" data-node="compute" /><text x="730" y="979" font-size="21" text-anchor="middle"><tspan x="730" dy="0">Mitochondrial lookup</tspan><tspan x="730" dy="24.15">(optional API)</tspan></text><text x="730" y="1082" font-size="19" text-anchor="middle"><tspan x="730" dy="0">MITOMASTER</tspan></text><path d="M443.5 1045 L715 1045" class="wire" /><path d="M1070 1032 L1083 1045 L1070 1058 L1057 1045Z" fill="#F5F5F5" stroke="#666666" stroke-width="3" data-node="compute" /><text x="1070" y="979" font-size="21" text-anchor="middle"><tspan x="1070" dy="0">Local reference</tspan><tspan x="1070" dy="24.15">screen</tspan></text><text x="1070" y="1082" font-size="19" text-anchor="middle"><tspan x="1070" dy="0">BLAST+</tspan></text><path d="M745 1045 L1055 1045" class="wire" /><path d="M1085 1045 L1356.5 1045" class="wire" /><path d="M290 1059.5 L290 1205.5" class="wire" /><text x="140" y="1212" font-size="27" text-anchor="middle"><tspan x="140" dy="0">Biological</tspan><tspan x="140" dy="31.049999999999997">feature filtering</tspan></text><rect x="277" y="1207" width="26" height="26" fill="#F5F5F5" stroke="#111111" stroke-width="3" data-node="module" /><text x="290" y="1227" font-size="20" text-anchor="middle"><tspan x="290" dy="0">6</tspan></text><circle cx="430" cy="1220" r="12" fill="#DAE8FC" stroke="#6C8EBF" stroke-width="3" data-node="input" /><text x="430" y="1154" font-size="21" text-anchor="middle"><tspan x="430" dy="0">Biological counts</tspan><tspan x="430" dy="24.15">and taxonomy</tspan></text><circle cx="1370" cy="1220" r="12" fill="#D5E8D4" stroke="#82B366" stroke-width="3" data-node="output" /><text x="1370" y="1154" font-size="21" text-anchor="middle"><tspan x="1370" dy="0">Final microbial</tspan><tspan x="1370" dy="24.15">counts and FASTA</tspan></text><path d="M304.5 1220 L416.5 1220" class="wire" /><path d="M730 1207 L743 1220 L730 1233 L717 1220Z" fill="#F5F5F5" stroke="#666666" stroke-width="3" data-node="compute" /><text x="730" y="1154" font-size="21" text-anchor="middle"><tspan x="730" dy="0">Abundance and</tspan><tspan x="730" dy="24.15">prevalence</tspan></text><text x="730" y="1257" font-size="19" text-anchor="middle"><tspan x="730" dy="0">ASPIRE / pandas</tspan></text><path d="M443.5 1220 L715 1220" class="wire" /><path d="M1070 1207 L1083 1220 L1070 1233 L1057 1220Z" fill="#F5F5F5" stroke="#666666" stroke-width="3" data-node="compute" /><text x="1070" y="1154" font-size="21" text-anchor="middle"><tspan x="1070" dy="0">Host / unassigned</tspan><tspan x="1070" dy="24.15">taxon exclusions</tspan></text><text x="1070" y="1257" font-size="19" text-anchor="middle"><tspan x="1070" dy="0">ASPIRE / pandas</tspan></text><path d="M745 1220 L1055 1220" class="wire" /><path d="M1085 1220 L1356.5 1220" class="wire" /><path d="M290 1234.5 L290 1380.5" class="wire" /><text x="140" y="1387" font-size="27" text-anchor="middle"><tspan x="140" dy="0">Metadata</tspan><tspan x="140" dy="31.049999999999997">&amp; preparation</tspan></text><rect x="277" y="1382" width="26" height="26" fill="#F5F5F5" stroke="#111111" stroke-width="3" data-node="module" /><text x="290" y="1402" font-size="20" text-anchor="middle"><tspan x="290" dy="0">7</tspan></text><circle cx="430" cy="1395" r="12" fill="#DAE8FC" stroke="#6C8EBF" stroke-width="3" data-node="input" /><text x="430" y="1329" font-size="21" text-anchor="middle"><tspan x="430" dy="0">Final counts</tspan><tspan x="430" dy="24.15">and metadata</tspan></text><circle cx="1370" cy="1395" r="12" fill="#D5E8D4" stroke="#82B366" stroke-width="3" data-node="output" /><text x="1370" y="1329" font-size="21" text-anchor="middle"><tspan x="1370" dy="0">Synchronized</tspan><tspan x="1370" dy="24.15">analysis tables</tspan></text><path d="M304.5 1395 L416.5 1395" class="wire" /><path d="M650 1382 L663 1395 L650 1408 L637 1395Z" fill="#F5F5F5" stroke="#666666" stroke-width="3" data-node="compute" /><text x="650" y="1329" font-size="21" text-anchor="middle"><tspan x="650" dy="0">Metadata-linked</tspan><tspan x="650" dy="24.15">long / wide tables</tspan></text><text x="650" y="1432" font-size="19" text-anchor="middle"><tspan x="650" dy="0">pandas</tspan></text><path d="M443.5 1395 L635 1395" class="wire" /><path d="M920 1382 L933 1395 L920 1408 L907 1395Z" fill="#F5F5F5" stroke="#666666" stroke-width="3" data-node="compute" /><text x="920" y="1329" font-size="21" text-anchor="middle"><tspan x="920" dy="0">Group diagnostics</tspan><tspan x="920" dy="24.15">selected cohort</tspan></text><text x="920" y="1432" font-size="19" text-anchor="middle"><tspan x="920" dy="0">scikit-learn</tspan></text><path d="M665 1395 L905 1395" class="wire" /><path d="M1160 1382 L1173 1395 L1160 1408 L1147 1395Z" fill="#F5F5F5" stroke="#666666" stroke-width="3" data-node="compute" /><text x="1160" y="1329" font-size="21" text-anchor="middle"><tspan x="1160" dy="0">Batch correction</tspan><tspan x="1160" dy="24.15">(optional)</tspan></text><text x="1160" y="1432" font-size="19" text-anchor="middle"><tspan x="1160" dy="0">ConQuR</tspan></text><path d="M935 1395 L1145 1395" class="wire" /><path d="M1175 1395 L1356.5 1395" class="wire" /><path d="M290 1409.5 L290 1555.5" class="wire" /><text x="140" y="1562" font-size="27" text-anchor="middle"><tspan x="140" dy="0">Diversity</tspan><tspan x="140" dy="31.049999999999997">&amp; cohort selection</tspan></text><rect x="277" y="1557" width="26" height="26" fill="#F5F5F5" stroke="#111111" stroke-width="3" data-node="module" /><text x="290" y="1577" font-size="20" text-anchor="middle"><tspan x="290" dy="0">8</tspan></text><circle cx="430" cy="1570" r="12" fill="#DAE8FC" stroke="#6C8EBF" stroke-width="3" data-node="input" /><text x="430" y="1504" font-size="21" text-anchor="middle"><tspan x="430" dy="0">Prepared</tspan><tspan x="430" dy="24.15">biological tables</tspan></text><circle cx="1370" cy="1570" r="12" fill="#D5E8D4" stroke="#82B366" stroke-width="3" data-node="output" /><text x="1370" y="1504" font-size="21" text-anchor="middle"><tspan x="1370" dy="0">Diversity and</tspan><tspan x="1370" dy="24.15">selected tables</tspan></text><path d="M304.5 1570 L416.5 1570" class="wire" /><path d="M900 1532 L913 1545 L900 1558 L887 1545Z" fill="#F5F5F5" stroke="#666666" stroke-width="3" data-node="compute" /><text x="900" y="1483" font-size="21" text-anchor="middle"><tspan x="900" dy="0">Full cohort</tspan><tspan x="900" dy="24.15">diversity</tspan></text><text x="900" y="1582" font-size="19" text-anchor="middle"><tspan x="900" dy="0">scikit-bio / vegan</tspan></text><path d="M443.5 1570 H550 V1545 H885" class="wire" /><path d="M915 1545 H1260 V1570 H1356.5" class="wire" /><path d="M900 1667 L913 1680 L900 1693 L887 1680Z" fill="#F5F5F5" stroke="#666666" stroke-width="3" data-node="compute" /><text x="900" y="1618" font-size="21" text-anchor="middle"><tspan x="900" dy="0">Select study groups</tspan><tspan x="900" dy="24.15">for other analyses</tspan></text><text x="900" y="1717" font-size="19" text-anchor="middle"><tspan x="900" dy="0">ASPIRE / pandas</tspan></text><path d="M443.5 1570 H550 V1680 H885" class="wire" /><path d="M915 1680 H1260 V1570 H1356.5" class="wire" /><path d="M290 1584.5 L290 1840.5" class="wire" /><text x="140" y="1847" font-size="27" text-anchor="middle"><tspan x="140" dy="0">Associations</tspan><tspan x="140" dy="31.049999999999997">&amp; study design</tspan></text><rect x="277" y="1842" width="26" height="26" fill="#F5F5F5" stroke="#111111" stroke-width="3" data-node="module" /><text x="290" y="1862" font-size="20" text-anchor="middle"><tspan x="290" dy="0">9</tspan></text><circle cx="430" cy="1855" r="12" fill="#DAE8FC" stroke="#6C8EBF" stroke-width="3" data-node="input" /><text x="430" y="1789" font-size="21" text-anchor="middle"><tspan x="430" dy="0">Selected tables</tspan><tspan x="430" dy="24.15">and optional VOCs</tspan></text><circle cx="1370" cy="1855" r="12" fill="#D5E8D4" stroke="#82B366" stroke-width="3" data-node="output" /><text x="1370" y="1789" font-size="21" text-anchor="middle"><tspan x="1370" dy="0">Association tables</tspan><tspan x="1370" dy="24.15">and figures</tspan></text><path d="M304.5 1855 L416.5 1855" class="wire" /><path d="M650 1842 L663 1855 L650 1868 L637 1855Z" fill="#F5F5F5" stroke="#666666" stroke-width="3" data-node="compute" /><text x="650" y="1789" font-size="21" text-anchor="middle"><tspan x="650" dy="0">Indicators and</tspan><tspan x="650" dy="24.15">patient contrasts</tspan></text><text x="650" y="1892" font-size="19" text-anchor="middle"><tspan x="650" dy="0">indicspecies / vegan</tspan></text><path d="M443.5 1855 L635 1855" class="wire" /><path d="M920 1842 L933 1855 L920 1868 L907 1855Z" fill="#F5F5F5" stroke="#666666" stroke-width="3" data-node="compute" /><text x="920" y="1789" font-size="21" text-anchor="middle"><tspan x="920" dy="0">ASV–VOC</tspan><tspan x="920" dy="24.15">associations</tspan></text><text x="920" y="1892" font-size="19" text-anchor="middle"><tspan x="920" dy="0">SciPy / statsmodels</tspan></text><path d="M665 1855 L905 1855" class="wire" /><path d="M1160 1842 L1173 1855 L1160 1868 L1147 1855Z" fill="#F5F5F5" stroke="#666666" stroke-width="3" data-node="compute" /><text x="1160" y="1789" font-size="21" text-anchor="middle"><tspan x="1160" dy="0">Patient-count</tspan><tspan x="1160" dy="24.15">power simulations</tspan></text><text x="1160" y="1892" font-size="19" text-anchor="middle"><tspan x="1160" dy="0">NumPy / SciPy</tspan></text><path d="M935 1855 L1145 1855" class="wire" /><path d="M1175 1855 L1356.5 1855" class="wire" /><path d="M290 1869.5 L290 2015.5" class="wire" /><text x="140" y="2022" font-size="27" text-anchor="middle"><tspan x="140" dy="0">Networks</tspan><tspan x="140" dy="31.049999999999997">&amp; genome links</tspan></text><rect x="277" y="2017" width="26" height="26" fill="#F5F5F5" stroke="#111111" stroke-width="3" data-node="module" /><text x="290" y="2037" font-size="20" text-anchor="middle"><tspan x="290" dy="0">10</tspan></text><circle cx="430" cy="2030" r="12" fill="#DAE8FC" stroke="#6C8EBF" stroke-width="3" data-node="input" /><text x="430" y="1964" font-size="21" text-anchor="middle"><tspan x="430" dy="0">Selected tables</tspan><tspan x="430" dy="24.15">and optional genomes</tspan></text><circle cx="1370" cy="2030" r="12" fill="#D5E8D4" stroke="#82B366" stroke-width="3" data-node="output" /><text x="1370" y="1964" font-size="21" text-anchor="middle"><tspan x="1370" dy="0">Networks and</tspan><tspan x="1370" dy="24.15">linkage tables</tspan></text><path d="M304.5 2030 L416.5 2030" class="wire" /><path d="M650 2017 L663 2030 L650 2043 L637 2030Z" fill="#F5F5F5" stroke="#666666" stroke-width="3" data-node="compute" /><text x="650" y="1964" font-size="21" text-anchor="middle"><tspan x="650" dy="0">Network</tspan><tspan x="650" dy="24.15">inference</tspan></text><text x="650" y="2067" font-size="19" text-anchor="middle"><tspan x="650" dy="0">SPIEC-EASI</tspan></text><path d="M443.5 2030 L635 2030" class="wire" /><path d="M920 2017 L933 2030 L920 2043 L907 2030Z" fill="#F5F5F5" stroke="#666666" stroke-width="3" data-node="compute" /><text x="920" y="1964" font-size="21" text-anchor="middle"><tspan x="920" dy="0">Modules and</tspan><tspan x="920" dy="24.15">null topology</tspan></text><text x="920" y="2067" font-size="19" text-anchor="middle"><tspan x="920" dy="0">igraph / NetworkX</tspan></text><path d="M665 2030 L905 2030" class="wire" /><path d="M1160 2017 L1173 2030 L1160 2043 L1147 2030Z" fill="#F5F5F5" stroke="#666666" stroke-width="3" data-node="compute" /><text x="1160" y="1964" font-size="21" text-anchor="middle"><tspan x="1160" dy="0">ASV–MAG links</tspan><tspan x="1160" dy="24.15">and overlays</tspan></text><text x="1160" y="2067" font-size="19" text-anchor="middle"><tspan x="1160" dy="0">BLAST+ / Biopython</tspan></text><path d="M935 2030 L1145 2030" class="wire" /><path d="M1175 2030 L1356.5 2030" class="wire" /><path d="M290 2044.5 L290 2190.5" class="wire" /><text x="140" y="2197" font-size="27" text-anchor="middle"><tspan x="140" dy="0">Reports</tspan><tspan x="140" dy="31.049999999999997">&amp; provenance</tspan></text><rect x="277" y="2192" width="26" height="26" fill="#F5F5F5" stroke="#111111" stroke-width="3" data-node="module" /><text x="290" y="2212" font-size="20" text-anchor="middle"><tspan x="290" dy="0">11</tspan></text><circle cx="430" cy="2205" r="12" fill="#DAE8FC" stroke="#6C8EBF" stroke-width="3" data-node="input" /><text x="430" y="2139" font-size="21" text-anchor="middle"><tspan x="430" dy="0">Module outputs</tspan><tspan x="430" dy="24.15">and QC audits</tspan></text><circle cx="1370" cy="2205" r="12" fill="#D5E8D4" stroke="#82B366" stroke-width="3" data-node="output" /><text x="1370" y="2139" font-size="21" text-anchor="middle"><tspan x="1370" dy="0">Published results</tspan><tspan x="1370" dy="24.15">and run record</tspan></text><path d="M304.5 2205 L416.5 2205" class="wire" /><path d="M650 2192 L663 2205 L650 2218 L637 2205Z" fill="#F5F5F5" stroke="#666666" stroke-width="3" data-node="compute" /><text x="650" y="2139" font-size="21" text-anchor="middle"><tspan x="650" dy="0">Master summaries</tspan></text><text x="650" y="2242" font-size="19" text-anchor="middle"><tspan x="650" dy="0">ASPIRE / pandas</tspan></text><path d="M443.5 2205 L635 2205" class="wire" /><path d="M920 2192 L933 2205 L920 2218 L907 2205Z" fill="#F5F5F5" stroke="#666666" stroke-width="3" data-node="compute" /><text x="920" y="2139" font-size="21" text-anchor="middle"><tspan x="920" dy="0">All-library Sankey</tspan><tspan x="920" dy="24.15">and HTML report</tspan></text><text x="920" y="2242" font-size="19" text-anchor="middle"><tspan x="920" dy="0">ASPIRE</tspan></text><path d="M665 2205 L905 2205" class="wire" /><path d="M1160 2192 L1173 2205 L1160 2218 L1147 2205Z" fill="#F5F5F5" stroke="#666666" stroke-width="3" data-node="compute" /><text x="1160" y="2139" font-size="21" text-anchor="middle"><tspan x="1160" dy="0">Logs and</tspan><tspan x="1160" dy="24.15">checksum inventory</tspan></text><text x="1160" y="2242" font-size="19" text-anchor="middle"><tspan x="1160" dy="0">Nextflow / ASPIRE</tspan></text><path d="M935 2205 L1145 2205" class="wire" /><path d="M1175 2205 L1356.5 2205" class="wire" /><text x="750" y="2350" font-size="19" text-anchor="middle"><tspan x="750" dy="0">Numbered modules group related operations; arrows summarize flow and enabled branches follow their dependencies.</tspan></text></svg></svg>
